<svg width="18" height="17" viewBox="0 0 18 17" fill="none" xmlns="http://www.w3.org/2000/svg">
<path d="M17.0631 7.45315H3.34984L11.5576 0.32813C11.6889 0.21328 11.6092 0 11.4357 0H9.36153C9.27013 0 9.18343 0.0328099 9.11543 0.0914099L0.25843 7.77655C0.17731 7.84685 0.11226 7.93385 0.0676699 8.03145C0.0230799 8.12915 0 8.23525 0 8.34255C0 8.44995 0.0230799 8.55605 0.0676699 8.65365C0.11226 8.75135 0.17731 8.83825 0.25843 8.90855L9.16703 16.6406C9.20223 16.671 9.24433 16.6875 9.28893 16.6875H11.4334C11.6068 16.6875 11.6865 16.4718 11.5553 16.3594L3.34984 9.23435H17.0631C17.1662 9.23435 17.2506 9.14995 17.2506 9.04685V7.64065C17.2506 7.53745 17.1662 7.45315 17.0631 7.45315Z" fill="white"/>
</svg>
